<svg width="408" height="374" viewBox="0 0 408 374" fill="none" xmlns="http://www.w3.org/2000/svg">
<g clip-path="url(#clip0_668_1156)">
<path d="M330.556 139.352C304.837 139.352 283.988 118.478 283.988 92.7274C283.988 66.977 304.837 46.1022 330.556 46.1022C356.275 46.1022 377.124 66.977 377.124 92.7274C377.124 118.478 356.275 139.352 330.556 139.352Z" fill="#FF6584"/>
<path d="M67.4826 91.9637C73.0225 93.8071 79.164 95.6179 85.9071 97.3961C120.786 106.59 167.537 113.762 217.549 117.591C267.56 121.42 314.857 121.447 350.726 117.67C368.199 115.829 382.02 113.182 391.803 109.802C402.161 106.223 407.603 101.911 407.979 96.9852C408.712 87.3887 389.799 78.9424 373.803 73.5468L373.37 74.8337C395.336 82.2433 407.147 90.0735 406.627 96.8817C405.965 105.553 385.538 112.638 350.584 116.319C314.794 120.089 267.584 120.06 217.652 116.237C167.72 112.414 121.054 105.257 86.2524 96.0827C52.265 87.1241 33.1508 77.0121 33.8131 68.3406C34.363 61.141 48.5374 54.9821 73.7251 50.9977L73.5134 49.6564C55.2116 52.5516 33.233 58.1251 32.4605 68.2371C32.0844 73.163 36.8089 78.2535 46.5028 83.3671C52.0288 86.282 59.0501 89.1578 67.4826 91.9637Z" fill="#3F3D56"/>
<path d="M71.8929 267.821C77.7307 267.821 84.1292 267.601 91.0883 267.159C127.083 264.87 173.707 256.914 222.373 244.755C271.038 232.597 315.93 217.688 348.778 202.777C364.78 195.513 377.061 188.637 385.28 182.34C393.982 175.674 397.789 169.863 396.594 165.069C394.267 155.731 373.658 153.688 356.779 153.619L356.773 154.977C379.952 155.072 393.627 158.773 395.278 165.398C397.381 173.836 380.228 187.009 348.218 201.54C315.442 216.419 270.632 231.298 222.044 243.438C173.456 255.577 126.918 263.52 91.0022 265.803C55.9275 268.034 34.6035 264.474 32.5006 256.036C30.7546 249.03 42.2655 238.71 64.9127 226.975L64.2893 225.769C47.8335 234.296 28.7322 246.525 31.1844 256.365C32.3791 261.158 38.466 264.497 49.276 266.288C55.4381 267.31 63.0069 267.821 71.8929 267.821Z" fill="#3F3D56"/>
</g>
<defs>
<clipPath id="clip0_668_1156">
<rect width="408" height="374" fill="white" transform="matrix(-1 0 0 1 408 0)"/>
</clipPath>
</defs>
</svg>
