<svg width="408" height="374" viewBox="0 0 408 374" fill="none" xmlns="http://www.w3.org/2000/svg">
<g clip-path="url(#clip0_668_993)">
<path d="M146.604 298.677L142.683 307.479C145.87 306.971 148.834 309.696 148.9 313.196C148.967 316.695 146.125 320.336 142.937 320.834C143.546 323.551 146.175 324.749 148.457 325.847C150.738 326.945 153.197 328.766 153.027 331.661C152.891 333.986 150.971 336.038 148.932 336.864C146.893 337.689 144.754 337.562 142.689 337.423C145.818 340.701 146.123 346.861 143.375 351.28C140.627 355.699 135.139 357.875 131.03 356.174C133.933 359.79 133.303 366.412 129.699 370.144C126.067 373.906 120.802 374.271 116.2 373.874C104.481 372.882 93.3137 368.451 84.0968 361.136C80.5786 358.337 77.2923 355.045 75.2853 350.751C73.2783 346.457 72.6869 341.021 74.5563 336.134C74.0521 342.255 67.9328 347.09 62.4279 347.361C56.9229 347.631 52.1166 344.527 48.0322 340.987C42.6004 336.279 37.5713 329.679 38.3169 321.537C38.6859 317.506 40.4444 313.629 42.1692 309.874L45.5129 302.593C46.8628 299.654 48.2433 296.666 50.275 294.199C52.3067 291.733 55.1268 289.823 57.9488 289.842C57.3036 286.89 56.6554 283.829 57.1962 280.693C57.7369 277.557 59.8075 274.31 62.6235 273.575C66.2074 272.641 69.2447 275.952 72.8485 275.64C76.3166 275.34 79.1827 271.855 82.5504 270.474C83.937 269.873 85.4684 269.691 86.957 269.949C88.4456 270.207 89.8268 270.893 90.9314 271.925C93.0663 274.012 93.9562 277.538 93.1901 280.873C92.519 283.796 90.733 286.373 89.649 289.191C88.5649 292.009 88.3967 295.633 90.4787 297.172C92.9909 299.03 96.8149 296.502 98.7776 293.445C100.74 290.387 101.867 286.685 104.349 284.113C107.279 281.078 111.864 280.367 114.88 282.48C117.896 284.593 119.05 289.324 117.529 293.346C116.286 296.634 113.438 299.961 114.426 303.057C115.47 306.33 120.038 305.916 122.793 303.603C125.549 301.29 127.378 297.806 130.1 295.441C132.864 293.039 136.474 291.987 139.643 292.659C141.251 293.032 142.738 293.805 143.969 294.906C145.199 296.007 146.133 297.4 146.684 298.958" fill="#E6E6E6"/>
<path d="M83.1277 273.943L91.2625 277.727C92.4853 278.332 93.8722 278.519 95.2112 278.26C96.3922 277.98 97.1902 277.257 97.4 276.276L99.2928 267.424C99.6502 265.754 98.269 263.779 96.0087 262.727L91.5162 260.637C89.256 259.586 86.8572 259.803 85.8131 261.154L80.2772 268.311C79.6632 269.104 79.626 270.181 80.1742 271.265C80.8402 272.457 81.8776 273.397 83.1277 273.943V273.943Z" fill="#3F3D56"/>
<path d="M143.491 151.8C148.435 154.105 148.517 164.428 146.967 167.772L144.157 173.826L126.249 165.496L129.058 159.442C130.612 156.099 138.544 149.504 143.491 151.8Z" fill="#3F3D56"/>
<path d="M191.615 238.72C191.93 238.72 192.241 238.644 192.52 238.498C192.8 238.353 193.04 238.142 193.22 237.883C193.401 237.624 193.517 237.326 193.558 237.013C193.598 236.7 193.563 236.382 193.455 236.086C193.368 235.844 193.233 235.622 193.059 235.432C192.885 235.242 192.675 235.089 192.441 234.981L99.9585 191.96C99.7254 191.852 99.4732 191.79 99.2163 191.779C98.9594 191.769 98.7029 191.808 98.4615 191.897C98.22 191.985 97.9982 192.12 97.8089 192.294C97.6195 192.468 97.4663 192.678 97.358 192.912C97.1398 193.383 97.1174 193.922 97.2956 194.41C97.4738 194.898 97.8381 195.296 98.3086 195.515H98.3088L190.791 238.536C191.049 238.657 191.33 238.72 191.615 238.72V238.72Z" fill="#3F3D56"/>
<path d="M119.273 169.357L145.709 181.654L104.24 271.018L77.8044 258.72L119.273 169.357Z" fill="#E6E6E6"/>
<path d="M218.511 56.8634C223.455 59.168 223.536 69.4906 221.986 72.8354L219.177 78.8895L201.269 70.559L204.078 64.5049C205.631 61.1615 213.563 54.5666 218.511 56.8634Z" fill="#3F3D56"/>
<path d="M107.735 284.216L115.87 288C117.093 288.605 118.48 288.792 119.819 288.533C121 288.253 121.798 287.53 122.007 286.549L123.9 277.697C124.258 276.027 122.876 274.052 120.616 273L116.124 270.911C113.863 269.859 111.465 270.076 110.421 271.427L104.885 278.584C104.271 279.377 104.233 280.454 104.782 281.538C105.448 282.73 106.485 283.67 107.735 284.216V284.216Z" fill="#3F3D56"/>
<path d="M132.746 296.64L140.881 300.424C142.103 301.028 143.49 301.216 144.829 300.957C146.01 300.677 146.808 299.954 147.018 298.973L148.911 290.121C149.268 288.451 147.887 286.476 145.627 285.424L141.134 283.334C138.874 282.283 136.475 282.5 135.431 283.851L129.895 291.008C129.281 291.801 129.244 292.878 129.792 293.962C130.458 295.154 131.496 296.094 132.746 296.64V296.64Z" fill="#3F3D56"/>
<path d="M187.239 89.6208L213.675 101.918L129.85 282.556L103.415 270.258L187.239 89.6208Z" fill="#E6E6E6"/>
<path d="M159.809 182.739L162.776 176.204L161.068 175.415L158.111 181.93L115.288 276.993L116.994 277.787" fill="#3F3D56"/>
<path d="M126.352 177.307L129.319 170.772L127.611 169.983L124.654 176.498L81.8314 271.561L83.5372 272.355" fill="#3F3D56"/>
<path d="M174.761 104.077L210.581 120.739C212.861 117.187 219.736 98.9839 218.192 93.5831L219.351 88.4327L194.618 76.9276L191.308 81.005C186.394 82.5146 176.827 99.6124 174.761 104.077Z" fill="#E6E6E6"/>
<path d="M193.585 77.148L219.107 89.0206C220.049 89.4588 221.052 89.2977 221.348 88.6607C221.39 88.5689 221.417 88.4705 221.426 88.3697L222.747 74.2609C222.803 73.6567 222.287 72.9721 221.498 72.6052L204.573 64.7317C203.784 64.3648 202.928 64.4113 202.504 64.8442L192.586 74.954C192.079 75.4711 192.354 76.3562 193.201 76.931C193.323 77.0135 193.451 77.086 193.585 77.148V77.148Z" fill="#E6E6E6"/>
<path d="M173.566 187.685C173.843 187.686 174.118 187.653 174.387 187.588C174.765 187.51 175.121 187.346 175.426 187.108C175.731 186.871 175.978 186.567 176.148 186.219L191.752 152.593C192.398 151.201 191.531 149.421 189.82 148.625L166.971 137.996C165.26 137.2 163.342 137.685 162.696 139.077L147.092 172.703C146.936 173.057 146.863 173.442 146.879 173.829C146.895 174.215 146.999 174.593 147.183 174.934C147.583 175.704 148.233 176.317 149.025 176.671L171.873 187.299C172.403 187.55 172.981 187.681 173.566 187.685Z" fill="#3F3D56"/>
<path d="M170.442 192.775L196.878 205.073L155.409 294.436L128.973 282.139L170.442 192.775Z" fill="#E6E6E6"/>
<path d="M203.01 78.622L210.763 82.2283C212.259 82.9242 214.277 81.7646 215.261 79.6437C216.245 77.5228 215.829 75.2306 214.333 74.5347L206.581 70.9284C205.085 70.2325 203.066 71.3921 202.082 73.513C201.098 75.6339 201.514 77.9261 203.01 78.622Z" fill="#3F3D56"/>
<path d="M194.144 174.979C199.088 177.283 199.17 187.606 197.619 190.951L194.81 197.005L176.902 188.674L179.711 182.62C181.265 179.277 189.197 172.682 194.144 174.979Z" fill="#3F3D56"/>
<path d="M330.443 158.878L331.553 158.634L331.31 157.521L332.051 157.359L332.294 158.471L333.406 158.228L333.568 158.969L332.457 159.213L332.7 160.326L331.959 160.488L331.716 159.376L330.605 159.619L330.443 158.878Z" fill="#E6E6E6"/>
<path d="M102.626 206.163C103.551 206.592 104.607 206.636 105.564 206.285C106.521 205.935 107.3 205.219 107.73 204.295L112.303 194.442C112.73 193.517 112.774 192.459 112.424 191.502C112.074 190.544 111.358 189.765 110.435 189.336C109.511 188.906 108.455 188.861 107.498 189.211C106.541 189.56 105.762 190.275 105.332 191.2L100.76 201.052C100.332 201.978 100.288 203.036 100.638 203.994C100.987 204.952 101.703 205.732 102.626 206.163V206.163Z" fill="#3F3D56"/>
<path d="M180.39 242.376C181.315 242.805 182.372 242.849 183.328 242.499C184.285 242.149 185.065 241.433 185.495 240.508L190.067 230.656C190.495 229.73 190.539 228.673 190.188 227.715C189.838 226.758 189.123 225.979 188.199 225.549C187.275 225.12 186.219 225.075 185.263 225.424C184.306 225.774 183.527 226.489 183.097 227.413L178.524 237.266C178.096 238.191 178.052 239.249 178.402 240.207C178.752 241.165 179.467 241.946 180.39 242.376Z" fill="#3F3D56"/>
<path d="M109.669 184.636L140.326 198.897C142.277 195.857 148.161 180.277 146.84 175.655L146.191 170.484L127.887 161.493L123.831 164.89C118.116 162.956 109.716 177.134 109.669 184.636Z" fill="#E6E6E6"/>
<path d="M123.902 183.647L131.654 187.254C133.15 187.95 135.427 186.234 136.728 183.43C138.029 180.626 137.871 177.778 136.375 177.082L128.622 173.475C127.126 172.779 124.85 174.495 123.549 177.299C122.247 180.103 122.406 182.951 123.902 183.647Z" fill="#3F3D56"/>
<path d="M189.649 202.204L192.615 195.669L190.908 194.88L187.95 201.395L145.128 296.458L146.834 297.252" fill="#3F3D56"/>
<path d="M160.322 207.814L190.978 222.075C195.501 219.737 202.413 204.439 197.493 198.833L196.844 193.662L178.54 184.671L174.484 188.068C170.278 189.36 162.09 203.993 160.322 207.814Z" fill="#E6E6E6"/>
<path d="M175.186 205.466L182.938 209.072C184.434 209.768 186.569 208.358 187.696 205.928C188.823 203.499 188.523 200.956 187.027 200.26L179.275 196.654C177.779 195.958 175.644 197.368 174.517 199.798C173.39 202.227 173.69 204.77 175.186 205.466Z" fill="#3F3D56"/>
<path d="M23.0548 305.933C20.3825 305.933 18.2161 303.763 18.2161 301.088C18.2161 298.412 20.3825 296.243 23.0548 296.243C25.7272 296.243 27.8936 298.412 27.8936 301.088C27.8936 303.763 25.7272 305.933 23.0548 305.933Z" fill="#F2F2F2"/>
<path d="M188.078 335.43C182.868 335.43 178.644 331.201 178.644 325.985C178.644 320.768 182.868 316.539 188.078 316.539C193.288 316.539 197.512 320.768 197.512 325.985C197.512 331.201 193.288 335.43 188.078 335.43Z" fill="#F2F2F2"/>
<path d="M97.2925 216.725L76.4155 222.135L63.611 247.316L85.2584 248.167L97.2925 216.725Z" fill="#E6E6E6"/>
<path d="M145.48 180.423L133.99 191.934L104.807 255.106L110.18 259.754L145.48 180.423Z" fill="#CCCCCC"/>
<path d="M170.463 190.857L169.562 207.106L142.017 271.012L134.975 270.103L170.463 190.857Z" fill="#CCCCCC"/>
<path d="M171.215 256.5L182.459 274.925L174.17 301.935L158.024 287.474L171.215 256.5Z" fill="#E6E6E6"/>
</g>
<defs>
<clipPath id="clip0_668_993">
<rect width="408" height="374" fill="white" transform="matrix(-1 0 0 1 408 0)"/>
</clipPath>
</defs>
</svg>
