<svg width="408" height="374" viewBox="0 0 408 374" fill="none" xmlns="http://www.w3.org/2000/svg">
<g clip-path="url(#clip0_668_901)">
<path d="M335.372 110.344C327.724 89.3869 315.789 70.2596 300.332 54.1872C287.218 40.5565 266.807 41.1229 266.807 41.1229L266.691 40.978C261.778 34.913 255.187 30.4354 247.742 28.1071C240.298 25.7787 232.333 25.7033 224.846 27.8902C222.9 28.4493 221.403 28.6971 220.691 28.4481C207.712 23.9001 208.322 13.6348 197.124 5.36512C177.517 -9.11456 112.482 7.47162 103.312 34.1159C95.8795 55.7106 62.7026 66.1773 50.3074 82.6954C48.3692 85.2783 46.4676 87.891 44.6026 90.5337C43.7281 91.7614 42.8635 92.9984 42.0086 94.2446C33.2268 106.978 25.3485 120.312 18.4319 134.15C13.8963 143.191 9.95438 152.518 6.6312 162.073C-6.29532 199.908 -1.87487 228.097 33.7678 221.133C37.987 220.306 42.1049 219.567 46.1214 218.914C51.9375 217.964 57.5508 217.183 62.9612 216.571C70.247 215.742 77.1785 215.198 83.7558 214.941C85.9673 214.852 88.1382 214.792 90.2686 214.762C121.768 214.324 145.133 220.26 162.933 229.474C165.95 231.032 168.809 232.681 171.511 234.419C175.637 237.06 179.577 239.982 183.302 243.164C188.457 247.594 193.212 252.471 197.509 257.739L197.745 258.028C218.564 283.525 225.416 311.752 239.898 316.722C301.805 337.97 340.958 260.944 344.974 185.595C345.176 181.798 345.288 178.012 345.31 174.237C345.322 172.549 345.314 170.866 345.285 169.188C345.221 164.809 345.028 160.458 344.706 156.16C344.585 154.517 344.445 152.882 344.286 151.256C344.111 149.503 343.92 147.76 343.699 146.028C342.124 133.332 339.369 121.253 335.372 110.344Z" fill="#736EAD"/>
<path d="M276.27 154.374C278.016 155.538 279.804 152.766 278.024 151.653C276.278 150.488 274.491 153.26 276.27 154.374Z" fill="#E6E6E6"/>
<path d="M94.5187 114.539C96.2648 115.703 98.0519 112.931 96.2722 111.818C94.5262 110.653 92.7391 113.426 94.5187 114.539Z" fill="#E6E6E6"/>
<path d="M218.399 146.226C220.145 147.39 221.932 144.618 220.153 143.505C218.407 142.34 216.62 145.113 218.399 146.226Z" fill="#E6E6E6"/>
<path d="M276.27 254.867C278.016 256.031 279.804 253.259 278.024 252.146C276.278 250.981 274.491 253.754 276.27 254.867Z" fill="#E6E6E6"/>
<path d="M187.203 28.0784C188.949 29.2432 190.736 26.4709 188.957 25.3578C187.211 24.193 185.424 26.9654 187.203 28.0784Z" fill="#E6E6E6"/>
<path d="M273.105 81.4936C274.852 82.6584 276.639 79.886 274.859 78.7729C273.113 77.6082 271.326 80.3806 273.105 81.4936Z" fill="#E6E6E6"/>
<path d="M149.551 66.1805L150.662 65.9366L150.419 64.8239L151.16 64.6614L151.403 65.774L152.514 65.5305L152.677 66.272L151.566 66.516L151.809 67.6282L151.068 67.7907L150.825 66.678L149.714 66.922L149.551 66.1805Z" fill="#E6E6E6"/>
<path d="M330.443 158.878L331.553 158.634L331.31 157.521L332.051 157.359L332.294 158.471L333.406 158.228L333.568 158.969L332.457 159.213L332.7 160.326L331.959 160.488L331.716 159.376L330.605 159.619L330.443 158.878Z" fill="#E6E6E6"/>
<path opacity="0.3" d="M139.62 141.289L111.32 58.5371L142.395 140.299C142.549 140.493 142.654 140.721 142.702 140.964C142.75 141.207 142.74 141.458 142.672 141.696C142.604 141.934 142.48 142.152 142.31 142.333C142.141 142.514 141.931 142.651 141.698 142.734C141.465 142.817 141.216 142.844 140.971 142.811C140.725 142.779 140.492 142.688 140.288 142.547C140.085 142.405 139.919 142.218 139.802 141.999C139.686 141.78 139.624 141.537 139.62 141.289H139.62Z" fill="#F0F0F0"/>
<path d="M53.7989 174.658C51.1265 174.658 48.9601 172.489 48.9601 169.813C48.9601 167.138 51.1265 164.969 53.7989 164.969C56.4712 164.969 58.6376 167.138 58.6376 169.813C58.6376 172.489 56.4712 174.658 53.7989 174.658Z" fill="#FF6584"/>
<path d="M259.965 210.419C257.293 210.419 255.126 208.25 255.126 205.574C255.126 202.899 257.293 200.73 259.965 200.73C262.637 200.73 264.804 202.899 264.804 205.574C264.804 208.25 262.637 210.419 259.965 210.419Z" fill="#3F3D56"/>
</g>
<defs>
<clipPath id="clip0_668_901">
<rect width="408" height="374" fill="white" transform="matrix(-1 0 0 1 408 0)"/>
</clipPath>
</defs>
</svg>
